HIERARCHY
ROOT Hips
{
 OFFSET 0.000000 0.000000 0.000000
 CHANNELS 6 Xposition Yposition Zposition Yrotation Xrotation Zrotation
 JOINT Chest
 {
  OFFSET 0.000000 9.585900 0.002600
  CHANNELS 3 Yrotation Xrotation Zrotation
  JOINT Chest2
  {
   OFFSET 0.000000 9.601200 -0.005300
   CHANNELS 3 Yrotation Xrotation Zrotation
   JOINT Chest3
   {
    OFFSET 0.000000 9.561800 0.000000
    CHANNELS 3 Yrotation Xrotation Zrotation
    JOINT Chest4
    {
     OFFSET 0.000000 9.552100 0.000000
     CHANNELS 3 Yrotation Xrotation Zrotation
     JOINT Neck
     {
      OFFSET 0.000000 14.453000 0.000000
      CHANNELS 3 Yrotation Xrotation Zrotation
      JOINT Head
      {
       OFFSET 0.000000 8.936500 -0.011300
       CHANNELS 3 Yrotation Xrotation Zrotation
       End Site
       {
        OFFSET 0.000000 17.073600 -0.006000
       }
      }
     }
     JOINT RightCollar
     {
      OFFSET -2.921100 9.558500 0.000000
      CHANNELS 3 Yrotation Xrotation Zrotation
      JOINT RightShoulder
      {
       OFFSET -13.519700 0.000000 0.000000
       CHANNELS 3 Yrotation Xrotation Zrotation
       JOINT RightElbow
       {
        OFFSET 0.000000 -29.696600 0.000000
        CHANNELS 3 Yrotation Xrotation Zrotation
        JOINT RightWrist
        {
         OFFSET 0.000000 -24.004700 0.000000
         CHANNELS 3 Yrotation Xrotation Zrotation
         End Site
         {
          OFFSET 0.000000 -17.728500 0.000000
         }
        }
       }
      }
     }
     JOINT LeftCollar
     {
      OFFSET 2.921100 9.558500 0.000000
      CHANNELS 3 Yrotation Xrotation Zrotation
      JOINT LeftShoulder
      {
       OFFSET 13.519700 0.000000 0.000000
       CHANNELS 3 Yrotation Xrotation Zrotation
       JOINT LeftElbow
       {
        OFFSET 0.000000 -29.696600 0.000000
        CHANNELS 3 Yrotation Xrotation Zrotation
        JOINT LeftWrist
        {
         OFFSET 0.000000 -24.004700 0.000000
         CHANNELS 3 Yrotation Xrotation Zrotation
         End Site
         {
          OFFSET 0.000000 -17.728500 0.000000
         }
        }
       }
      }
     }
    }
   }
  }
 }
 JOINT RightHip
 {
  OFFSET -7.771700 -0.012900 -0.001300
  CHANNELS 3 Yrotation Xrotation Zrotation
  JOINT RightKnee
  {
   OFFSET 0.000000 -40.869800 0.001200
   CHANNELS 3 Yrotation Xrotation Zrotation
   JOINT RightAnkle
   {
    OFFSET 0.000000 -39.717900 0.002100
    CHANNELS 3 Yrotation Xrotation Zrotation
    JOINT RightToe
    {
     OFFSET 0.000000 -4.965400 11.033500
     CHANNELS 3 Yrotation Xrotation Zrotation
     End Site
     {
      OFFSET 0.000000 -1.423100 5.872300
     }
    }
   }
  }
 }
 JOINT LeftHip
 {
  OFFSET 7.771700 -0.012900 -0.001300
  CHANNELS 3 Yrotation Xrotation Zrotation
  JOINT LeftKnee
  {
   OFFSET 0.000000 -40.869800 0.001200
   CHANNELS 3 Yrotation Xrotation Zrotation
   JOINT LeftAnkle
   {
    OFFSET 0.000000 -39.717900 0.002100
    CHANNELS 3 Yrotation Xrotation Zrotation
    JOINT LeftToe
    {
     OFFSET 0.000000 -4.965400 11.033500
     CHANNELS 3 Yrotation Xrotation Zrotation
     End Site
     {
      OFFSET 0.000000 -1.423100 5.872300
     }
    }
   }
  }
 }
}
MOTION
Frames: 9
Frame Time: 0.008333
0.000000 85.388000 0.000000 0.000000 -5.767877 0.000000 0.000000 11.653817 0.000000 0.000000 -5.885947 0.000000 0.000000 -0.000000 0.000000 0.000000 -0.000000 0.000000 0.000000 12.528835 0.000000 0.000000 0.711642 0.000000 0.000000 -0.000000 0.000000 0.000000 0.000000 -90.000000 0.000000 -2.309062 0.000000 0.000000 2.309062 0.000000 0.000000 -0.000000 0.000000 0.000000 -0.000000 90.000000 0.000000 -2.309062 0.000000 0.000000 2.309062 0.000000 0.000000 8.520406 0.000000 0.000000 1.905762 0.000000 -0.000000 -4.658285 0.000000 0.000000 -0.000000 0.000000 0.000000 8.520406 0.000000 0.000000 1.905762 0.000000 -0.000000 -4.658285 0.000000 0.000000 -0.000000 0.000000
-23.120406 55.316868 9.357491 -176.336012 -18.028063 -1.475656 0.407056 17.334392 0.764038 0.037244 1.850807 0.091366 0.096614 3.075797 0.189647 0.448744 15.233291 0.844311 5.620416 12.725646 -1.354353 6.384389 -12.238219 -2.775415 0.978194 -0.254786 2.116225 4.233297 -6.398628 -10.422222 -37.958114 -73.635678 67.423140 -10.120867 -24.187210 -3.707995 -6.711165 -2.553788 1.078362 -0.258387 -12.937319 9.878882 29.225304 -64.349018 -68.659273 2.084872 -26.672394 6.952502 -1.328253 -56.841236 10.982525 -90.863527 87.695363 -96.449209 -11.193406 -22.365892 13.319396 0.106349 -0.048682 0.002766 11.228045 -52.983955 -7.292677 108.824694 77.503564 105.587043 -9.025302 -24.370035 3.288934 0.035754 0.137323 0.003202
-23.122142 55.315536 9.357972 -176.341589 -18.021055 -1.444095 0.435433 17.324833 0.784979 0.040596 1.849550 0.094207 0.103915 3.074197 0.192438 0.455199 15.229948 0.852135 5.959636 12.772218 -1.575283 6.804988 -12.171554 -3.111149 1.001963 -0.250284 2.122116 4.232830 -6.370773 -10.437300 -37.998127 -73.659600 67.401729 -10.113653 -24.177719 -3.712590 -6.683996 -2.567602 1.094951 -0.263740 -12.994170 9.863069 29.135360 -64.384730 -68.606751 2.072478 -26.687871 6.954729 -1.281781 -56.852510 10.918692 -91.135289 87.710910 -96.736715 -11.095734 -22.385239 13.306224 0.044687 -0.054379 -0.004138 11.271437 -52.984818 -7.340306 108.819610 77.506390 105.578255 -9.031852 -24.364818 3.295756 0.036092 0.134937 0.004765
-23.121562 55.314345 9.357131 -176.341522 -18.019176 -1.424089 0.501949 17.318898 0.865901 0.045569 1.846947 0.099219 0.077667 3.073846 0.166015 0.406319 15.233535 0.814297 6.336164 12.822087 -1.764360 7.220448 -12.092781 -3.437481 1.023747 -0.248822 2.131581 4.264853 -6.350590 -10.437781 -38.090301 -73.675960 67.482757 -10.092959 -24.147845 -3.728061 -6.620065 -2.580725 1.136898 -0.313719 -13.003408 9.817477 29.077768 -64.469479 -68.525560 2.064640 -26.703226 6.951253 -1.248695 -56.856924 10.875683 -91.336261 87.726720 -96.943209 -11.052539 -22.400107 13.288235 0.013149 -0.054436 0.004108 11.295555 -52.982561 -7.368054 108.826055 77.508589 105.578423 -9.035076 -24.365246 3.304916 0.031832 0.135626 0.002131
-23.119977 55.313039 9.355771 -176.340469 -18.017943 -1.406552 0.528423 17.315455 0.893019 0.039510 1.846500 0.092909 0.080780 3.072579 0.169071 0.442842 15.227296 0.851329 6.641665 12.888479 -1.982747 7.628002 -12.007339 -3.750842 0.990334 -0.240659 2.103323 4.287058 -6.335622 -10.442618 -38.179760 -73.688499 67.572366 -10.074079 -24.121435 -3.750663 -6.613325 -2.590166 1.139021 -0.339073 -13.031166 9.784500 29.037368 -64.479408 -68.508474 1.998171 -26.729924 6.973668 -1.224839 -56.861222 10.864866 -91.484594 87.717636 -97.090330 -11.139988 -22.395778 13.299792 0.024337 -0.050554 0.015679 11.310479 -52.983581 -7.377408 108.872839 77.517888 105.611506 -9.044909 -24.363047 3.315199 0.029750 0.132826 0.007274
-23.119482 55.311889 9.353116 -176.343315 -18.023450 -1.378555 0.554670 17.319117 0.906507 0.017013 1.847365 0.070144 0.081825 3.072138 0.170062 0.559204 15.212215 0.942523 6.877709 12.966247 -2.211107 8.023635 -11.918405 -4.046682 0.944877 -0.229154 2.074025 4.239278 -6.326499 -10.474437 -38.237486 -73.696166 67.653128 -10.062999 -24.095881 -3.757258 -6.663757 -2.595034 1.113953 -0.360271 -13.059799 9.755449 28.963488 -64.558773 -68.418769 2.030153 -26.743452 6.951774 -1.179046 -56.860336 10.839959 -91.656433 87.706669 -97.246276 -11.307958 -22.386185 13.322814 -0.009664 -0.044161 0.020040 11.345641 -52.972714 -7.413920 108.905630 77.519060 105.638711 -9.043193 -24.367973 3.319323 0.029786 0.131022 0.007152
-23.117554 55.310313 9.351103 -176.341687 -18.023134 -1.358005 0.576017 17.316964 0.922124 0.022306 1.846675 0.075516 0.086198 3.070292 0.173180 0.592298 15.205495 0.967055 7.146274 13.038943 -2.399972 8.405292 -11.827042 -4.323266 0.937716 -0.221686 2.067996 4.195528 -6.320210 -10.501712 -38.277656 -73.708146 67.725554 -10.050581 -24.076378 -3.770333 -6.675374 -2.597079 1.108030 -0.346393 -13.125291 9.751704 28.870865 -64.596610 -68.349461 2.064359 -26.757202 6.934842 -1.143651 -56.864822 10.817218 -91.807624 87.693843 -97.389320 -11.392907 -22.381655 13.337930 -0.000564 -0.042381 0.019492 11.368478 -52.968875 -7.440706 108.912192 77.518942 105.637171 -9.036752 -24.372036 3.321928 0.021254 0.133249 0.005091
-23.111856 55.308518 9.349241 -176.339616 -18.020259 -1.358892 0.599614 17.311245 0.955801 0.028386 1.846297 0.079968 0.111983 3.064909 0.195878 0.574242 15.204420 0.955086 7.423958 13.110191 -2.564290 8.772203 -11.733397 -4.580468 0.951088 -0.218955 2.072799 4.177940 -6.312024 -10.520154 -38.290820 -73.724630 67.755101 -10.040865 -24.072574 -3.744431 -6.678700 -2.593652 1.102659 -0.353590 -13.156467 9.741305 28.818169 -64.651152 -68.283951 2.072779 -26.769268 6.932840 -1.142353 -56.868133 10.807628 -91.964158 87.705425 -97.554393 -11.276038 -22.399413 13.299910 0.014791 -0.049580 0.026327 11.359050 -52.973950 -7.411745 108.951952 77.534709 105.665674 -9.055696 -24.376141 3.324086 0.032169 0.137963 0.013730
-23.109439 55.306297 9.348241 -176.334493 -18.013776 -1.340783 0.599935 17.303243 0.950722 0.044875 1.845559 0.094568 0.117284 3.059552 0.201582 0.555775 15.207104 0.941706 7.711612 13.176864 -2.704127 9.121374 -11.637255 -4.817531 0.984180 -0.217225 2.089964 4.199427 -6.311473 -10.543987 -38.306949 -73.733663 67.756964 -10.029410 -24.078253 -3.741082 -6.647047 -2.586074 1.115153 -0.367592 -13.191109 9.722505 28.764997 -64.703245 -68.213106 2.081957 -26.778135 6.931017 -1.113744 -56.878322 10.762677 -92.232186 87.717319 -97.834230 -11.160719 -22.415668 13.273847 0.026182 -0.056914 0.025925 11.379381 -52.975945 -7.436708 108.944870 77.537796 105.650803 -9.053083 -24.379509 3.320854 0.023099 0.143998 0.019443
